<svg height="512" viewBox="0 0 128 128" width="512" xmlns="http://www.w3.org/2000/svg"><g><path d="m87.673 22.047h10.545v26.015h-10.545z" fill="#65727f" transform="matrix(.707 -.707 .707 .707 2.436 75.99)"/><path d="m14.707 56.638h87.294v26.015h-87.294z" fill="#54b88b" transform="matrix(.707 -.707 .707 .707 -32.156 61.661)"/><path d="m93.398 10.412h22.363v26.015h-22.363z" fill="#ffca28" transform="matrix(.707 -.707 .707 .707 14.071 80.809)"/><path d="m36.689 109.707-30.374 11.978 11.978-30.374z" fill="#9b6e42"/><path d="m19.11 116.64-12.79 5.04 5.04-12.79z" fill="#65727f"/><g><path d="m122.922 23.474-18.4-18.4a1.75 1.75 0 0 0 -2.474 0l-61.773 61.78a1.75 1.75 0 1 0 2.475 2.475l37.269-37.269 3.5 3.5-59.248 59.254-3.5-3.5 6.855-6.855a1.75 1.75 0 0 0 -2.475-2.475l-8.092 8.093a1.649 1.649 0 0 0 -.119.146c-.026.032-.054.061-.078.095a1.746 1.746 0 0 0 -.191.349l-6.93 17.56v.006l-5.054 12.809a1.751 1.751 0 0 0 2.271 2.271l12.809-5.052 17.559-6.925a1.773 1.773 0 0 0 .349-.191c.034-.024.063-.052.1-.078a1.794 1.794 0 0 0 .145-.119l61.727-61.726v-.005l7.45-7.449 3.228-3.227a1.75 1.75 0 0 0 -2.475-2.475l-1.992 1.993-15.908-15.93 13.339-13.338 15.921 15.92-5.378 5.378a1.75 1.75 0 0 0 2.475 2.475l6.615-6.616a1.75 1.75 0 0 0 0-2.474zm-36.922 14.563 3.963 3.963-59.251 59.255-3.967-3.967zm-49.311 69.195-3.5-3.5 59.248-59.254 3.5 3.5zm-24.678 4.78 3.977 3.977-6.567 2.59zm7.526 2.577-6.126-6.126 5.532-14.028 4.088 4.088 6.436 6.436 4.088 4.088zm83.863-74.065-4.981 4.982-15.925-15.921 4.982-4.985z"/><path d="m32.21 79.144a1.745 1.745 0 0 0 1.238-.513l3.181-3.181a1.75 1.75 0 1 0 -2.475-2.474l-3.181 3.18a1.751 1.751 0 0 0 1.237 2.988z"/></g></g></svg>